<svg width="14" height="14" viewBox="0 0 14 14" fill="none" xmlns="http://www.w3.org/2000/svg">
<g clip-path="url(#clip0_924_254)">
<path d="M9.67323 1.92259C9.67856 1.92231 9.68382 1.92209 9.68909 1.92197C9.95993 1.91609 9.92766 2.18227 9.92657 2.36743C10.0297 2.39781 10.1322 2.44354 10.2205 2.50506C10.4168 2.64101 10.5503 2.85002 10.5912 3.08526C10.6071 3.17808 10.6199 3.29165 10.5605 3.37109C10.444 3.53642 10.1901 3.45996 10.1721 3.26795C10.1506 3.03873 10.1039 2.97195 9.92951 2.83182C9.9172 3.10695 9.92616 3.44403 9.92664 3.72516C10.0014 3.75164 10.0781 3.78079 10.1476 3.81922C10.3529 3.93371 10.5046 4.12478 10.5696 4.35073C10.6357 4.58068 10.6076 4.82746 10.4917 5.03673C10.3694 5.25591 10.1701 5.40628 9.92958 5.47406C9.92117 5.65749 9.94646 5.75782 9.75164 5.84138C9.71007 5.84667 9.68868 5.84656 9.64814 5.83554C9.47191 5.78763 9.48715 5.61466 9.48797 5.47442C9.44491 5.46655 9.39528 5.44668 9.35515 5.42901C9.13209 5.3331 8.95668 5.15195 8.86795 4.92593C8.82523 4.81528 8.77963 4.61173 8.8333 4.5001C8.85715 4.45099 8.89967 4.41348 8.95135 4.39596C9.00296 4.37878 9.07871 4.37987 9.12669 4.40614C9.2617 4.48001 9.23265 4.62048 9.27011 4.73995C9.30559 4.85328 9.37402 4.94307 9.47998 4.99688L9.48818 5.00095L9.48715 4.11766C9.41093 4.08812 9.36199 4.07572 9.28413 4.03451C9.07221 3.92258 8.91416 3.73015 8.8456 3.50051C8.77683 3.26661 8.80465 3.01491 8.92285 2.80168C9.05164 2.56987 9.23402 2.44128 9.48497 2.37015C9.50274 2.18768 9.43158 1.97867 9.67323 1.92259ZM9.36547 3.54991C9.41011 3.59214 9.4367 3.61296 9.48777 3.64813C9.48797 3.57797 9.49795 2.86504 9.47833 2.84502L9.47499 2.84252C9.35761 2.92264 9.28365 3.00691 9.25548 3.1512C9.23087 3.27281 9.25699 3.39918 9.32767 3.50113C9.34025 3.51941 9.35098 3.53317 9.36547 3.54991ZM9.93128 5.01048C9.97538 4.9734 10.0276 4.93245 10.0643 4.88909C10.1205 4.81573 10.1451 4.7586 10.1608 4.66672C10.1899 4.49745 10.0946 4.27523 9.93231 4.2019C9.92274 4.2543 9.92397 4.48503 9.92575 4.5533C9.92923 4.68824 9.91932 4.88101 9.93128 5.01048Z" fill="#01206C"/>
<path d="M9.52677 1.05852C11.0873 0.959464 12.4323 2.14483 12.5303 3.70541C12.6282 5.266 11.4419 6.61023 9.88128 6.70706C8.32214 6.8038 6.97956 5.61893 6.88174 4.05991C6.7839 2.50089 7.96783 1.15747 9.52677 1.05852ZM9.86768 6.26816C11.1854 6.1789 12.1812 5.03798 12.0915 3.72021C12.0017 2.40243 10.8603 1.40711 9.54263 1.49742C8.22561 1.58769 7.23099 2.72822 7.32074 4.04525C7.4105 5.36227 8.5506 6.35736 9.86768 6.26816Z" fill="#01206C"/>
<path d="M10.0812 7.89005C10.1518 7.87214 10.286 7.8113 10.358 7.78088L10.8273 7.58202L12.3882 6.92796L12.8721 6.72673C13.0532 6.65146 13.1579 6.57137 13.3553 6.62098C13.6159 6.68645 13.8218 6.8339 13.9339 7.08409C13.9613 7.14534 13.9792 7.2269 14 7.29102V7.50498L13.9979 7.51025C13.9798 7.55694 13.968 7.60896 13.952 7.65715C13.9137 7.77295 13.8474 7.87754 13.7592 7.96169C13.6482 8.06683 13.3373 8.26999 13.1994 8.36501L9.87895 10.6605C9.67688 10.8002 9.52718 10.9124 9.30152 11.0133C9.04566 11.128 8.76955 11.1908 8.48921 11.1981C8.23696 11.2055 7.76398 11.1248 7.49855 11.0872L5.62681 10.8243L5.02119 10.74C4.92129 10.7259 4.73977 10.6961 4.64473 10.6928C4.59512 10.7216 4.53901 10.7598 4.49274 10.7943C4.36315 10.8908 4.21066 10.9824 4.08935 11.0882C4.16559 11.1789 4.24782 11.2753 4.31592 11.372C4.4701 11.5909 4.27103 11.7053 4.12563 11.82L3.7962 12.0793C3.4643 12.3405 3.13242 12.6021 2.8012 12.8644C2.68829 12.9538 2.56878 13.0048 2.45565 12.8756C2.34974 12.7545 2.25122 12.623 2.15099 12.4958L0.569039 10.4891C0.399237 10.2739 0.227966 10.0583 0.0597849 9.84158C0.0376297 9.81307 0.0174858 9.78046 0 9.74888V9.62952C0.0273116 9.58796 0.0535745 9.53874 0.0920637 9.50784C0.155811 9.45671 0.220886 9.40599 0.285029 9.3554L1.30132 8.55471C1.40628 8.47138 1.51752 8.3754 1.62578 8.3024C1.8121 8.17668 1.93534 8.34867 2.03501 8.47794C2.09927 8.56127 2.18493 8.68261 2.25707 8.752C2.94848 8.35852 3.6656 7.97201 4.36298 7.58551L4.99976 7.23223C5.10672 7.17289 5.28341 7.06817 5.39204 7.02859C5.49328 6.99195 5.6012 6.97732 5.70855 6.98579C5.82709 6.99441 6.02464 7.03556 6.14915 7.05518C6.42028 7.09722 6.69179 7.13673 6.96363 7.17378C7.51994 7.24775 8.07687 7.31754 8.6342 7.38317C8.88788 7.41434 9.62001 7.48024 9.82222 7.5758C9.9549 7.63849 10.0339 7.75538 10.0812 7.89005ZM9.17663 8.60994C9.26673 8.54746 9.67791 8.08911 9.65063 7.99279C9.61085 7.95274 9.50305 7.94064 9.44521 7.93237C8.63386 7.81581 7.81601 7.73494 7.00396 7.62345C6.72964 7.5864 6.45567 7.54668 6.18211 7.5043C6.02506 7.47935 5.67796 7.39766 5.53107 7.44804C5.44608 7.47716 5.25701 7.59214 5.17133 7.63979L3.20595 8.72896C3.00228 8.84161 2.72228 8.98619 2.52775 9.10726C2.64519 9.24733 2.76516 9.40503 2.87891 9.54941L3.49738 10.3342C3.53604 10.3833 3.7812 10.7006 3.81343 10.7235C3.85785 10.7177 3.93984 10.6496 3.97879 10.6211C4.08302 10.5451 4.18812 10.4702 4.29408 10.3966C4.3644 10.3474 4.51158 10.2329 4.59599 10.2396C4.7275 10.2502 4.86869 10.2744 5.00105 10.2927L7.54346 10.6489C7.81293 10.687 8.26205 10.7666 8.51498 10.7549C8.72703 10.7454 8.93539 10.6958 9.12898 10.6086C9.3167 10.5222 9.42997 10.4363 9.59731 10.3208L12.8479 8.07353C12.9804 7.98206 13.1116 7.89408 13.2457 7.79872C13.3838 7.70042 13.4984 7.65667 13.549 7.48201C13.6044 7.2915 13.4324 7.02859 13.2288 7.05607C12.989 7.14958 12.7412 7.25718 12.5027 7.35644L11.097 7.94481L10.3405 8.26562C10.2098 8.32099 10.0733 8.37677 9.94396 8.43699C9.87656 8.46837 9.8106 8.57303 9.7596 8.63312C9.64448 8.76867 9.48589 8.96439 9.31964 9.03042C9.25764 9.0551 9.10909 9.05585 9.04066 9.06098C8.89978 9.07144 8.75513 9.07356 8.61444 9.08333C8.05656 9.11717 7.4995 9.1627 6.9436 9.21991C6.80359 9.23523 6.6636 9.25013 6.52526 9.27508C6.45043 9.28855 6.3742 9.31917 6.30193 9.32765C6.13115 9.34775 6.01742 9.1696 6.09037 9.01689C6.14525 8.90198 6.24072 8.88106 6.35545 8.85597C6.55944 8.81782 6.76842 8.79363 6.97519 8.77209C7.46272 8.72246 7.95122 8.68247 8.4404 8.65212L8.88337 8.6258C8.97258 8.62136 9.08975 8.61917 9.17663 8.60994ZM0.52908 9.72263C0.580757 9.80493 0.707561 9.95676 0.770834 10.037L1.23555 10.6261C1.69678 11.2108 2.15755 11.7964 2.61996 12.3802C2.6321 12.3956 2.64358 12.4084 2.6617 12.4165C2.9293 12.2019 3.19823 11.989 3.46847 11.7778C3.58427 11.6865 3.73267 11.5758 3.84205 11.4806L1.92381 9.04615C1.88223 8.9933 1.75102 8.81953 1.71107 8.7911L0.948835 9.393C0.818077 9.49615 0.661717 9.62706 0.52908 9.72263Z" fill="#01206C"/>
<path d="M9.52677 1.05852C11.0873 0.959464 12.4323 2.14483 12.5303 3.70541C12.6282 5.266 11.4419 6.61023 9.88128 6.70706C8.32214 6.8038 6.97956 5.61893 6.88174 4.05991C6.7839 2.50089 7.96783 1.15747 9.52677 1.05852ZM9.86768 6.26816C11.1854 6.1789 12.1812 5.03798 12.0915 3.72021C12.0017 2.40243 10.8603 1.40711 9.54263 1.49742C8.22561 1.58769 7.23099 2.72822 7.32074 4.04525C7.4105 5.36227 8.5506 6.35736 9.86768 6.26816Z" stroke="#01206C" stroke-width="0.4"/>
<path d="M10.0812 7.89005C10.1518 7.87214 10.286 7.8113 10.358 7.78088L10.8273 7.58202L12.3882 6.92796L12.8721 6.72673C13.0532 6.65146 13.1579 6.57137 13.3553 6.62098C13.6159 6.68645 13.8218 6.8339 13.9339 7.08409C13.9613 7.14534 13.9792 7.2269 14 7.29102V7.50498L13.9979 7.51025C13.9798 7.55694 13.968 7.60896 13.952 7.65715C13.9137 7.77295 13.8474 7.87754 13.7592 7.96169C13.6482 8.06683 13.3373 8.26999 13.1994 8.36501L9.87895 10.6605C9.67688 10.8002 9.52718 10.9124 9.30152 11.0133C9.04566 11.128 8.76955 11.1908 8.48921 11.1981C8.23696 11.2055 7.76398 11.1248 7.49855 11.0872L5.62681 10.8243L5.02119 10.74C4.92129 10.7259 4.73977 10.6961 4.64473 10.6928C4.59512 10.7216 4.53901 10.7598 4.49274 10.7943C4.36315 10.8908 4.21066 10.9824 4.08935 11.0882C4.16559 11.1789 4.24782 11.2753 4.31592 11.372C4.4701 11.5909 4.27103 11.7053 4.12563 11.82L3.7962 12.0793C3.4643 12.3405 3.13242 12.6021 2.8012 12.8644C2.68829 12.9538 2.56878 13.0048 2.45565 12.8756C2.34974 12.7545 2.25122 12.623 2.15099 12.4958L0.569039 10.4891C0.399237 10.2739 0.227966 10.0583 0.0597849 9.84158C0.0376297 9.81307 0.0174858 9.78046 0 9.74888V9.62952C0.0273116 9.58796 0.0535745 9.53874 0.0920637 9.50784C0.155811 9.45671 0.220886 9.40599 0.285029 9.3554L1.30132 8.55471C1.40628 8.47138 1.51752 8.3754 1.62578 8.3024C1.8121 8.17668 1.93534 8.34867 2.03501 8.47794C2.09927 8.56127 2.18493 8.68261 2.25707 8.752C2.94848 8.35852 3.6656 7.97201 4.36298 7.58551L4.99976 7.23223C5.10672 7.17289 5.28341 7.06817 5.39204 7.02859C5.49328 6.99195 5.6012 6.97732 5.70855 6.98579C5.82709 6.99441 6.02464 7.03556 6.14915 7.05518C6.42028 7.09722 6.69179 7.13673 6.96363 7.17378C7.51994 7.24775 8.07687 7.31754 8.6342 7.38317C8.88788 7.41434 9.62001 7.48024 9.82222 7.5758C9.9549 7.63849 10.0339 7.75538 10.0812 7.89005ZM9.17663 8.60994C9.26673 8.54746 9.67791 8.08911 9.65063 7.99279C9.61085 7.95274 9.50305 7.94064 9.44521 7.93237C8.63386 7.81581 7.81601 7.73494 7.00396 7.62345C6.72964 7.5864 6.45567 7.54668 6.18211 7.5043C6.02506 7.47935 5.67796 7.39766 5.53107 7.44804C5.44608 7.47716 5.25701 7.59214 5.17133 7.63979L3.20595 8.72896C3.00228 8.84161 2.72228 8.98619 2.52775 9.10726C2.64519 9.24733 2.76516 9.40503 2.87891 9.54941L3.49738 10.3342C3.53604 10.3833 3.7812 10.7006 3.81343 10.7235C3.85785 10.7177 3.93984 10.6496 3.97879 10.6211C4.08302 10.5451 4.18812 10.4702 4.29408 10.3966C4.3644 10.3474 4.51158 10.2329 4.59599 10.2396C4.7275 10.2502 4.86869 10.2744 5.00105 10.2927L7.54346 10.6489C7.81293 10.687 8.26205 10.7666 8.51498 10.7549C8.72703 10.7454 8.93539 10.6958 9.12898 10.6086C9.3167 10.5222 9.42997 10.4363 9.59731 10.3208L12.8479 8.07353C12.9804 7.98206 13.1116 7.89408 13.2457 7.79872C13.3838 7.70042 13.4984 7.65667 13.549 7.48201C13.6044 7.2915 13.4324 7.02859 13.2288 7.05607C12.989 7.14958 12.7412 7.25718 12.5027 7.35644L11.097 7.94481L10.3405 8.26562C10.2098 8.32099 10.0733 8.37677 9.94396 8.43699C9.87656 8.46837 9.8106 8.57303 9.7596 8.63312C9.64448 8.76867 9.48589 8.96439 9.31964 9.03042C9.25764 9.0551 9.10909 9.05585 9.04066 9.06098C8.89978 9.07144 8.75513 9.07356 8.61444 9.08333C8.05656 9.11717 7.4995 9.1627 6.9436 9.21991C6.80359 9.23523 6.6636 9.25013 6.52526 9.27508C6.45043 9.28855 6.3742 9.31917 6.30193 9.32765C6.13115 9.34775 6.01742 9.1696 6.09037 9.01689C6.14525 8.90198 6.24072 8.88106 6.35545 8.85597C6.55944 8.81782 6.76842 8.79363 6.97519 8.77209C7.46272 8.72246 7.95122 8.68247 8.4404 8.65212L8.88337 8.6258C8.97258 8.62136 9.08975 8.61917 9.17663 8.60994ZM0.52908 9.72263C0.580757 9.80493 0.707561 9.95676 0.770834 10.037L1.23555 10.6261C1.69678 11.2108 2.15755 11.7964 2.61996 12.3802C2.6321 12.3956 2.64358 12.4084 2.6617 12.4165C2.9293 12.2019 3.19823 11.989 3.46847 11.7778C3.58427 11.6865 3.73267 11.5758 3.84205 11.4806L1.92381 9.04615C1.88223 8.9933 1.75102 8.81953 1.71107 8.7911L0.948835 9.393C0.818077 9.49615 0.661717 9.62706 0.52908 9.72263Z" stroke="#01206C" stroke-width="0.4"/>
</g>
<defs>
<clipPath id="clip0_924_254">
<rect width="14" height="14" fill="white"/>
</clipPath>
</defs>
</svg>
